<svg version="1.1" viewBox="0.0 0.0 960.0 720.0" fill="none" stroke="none" stroke-linecap="square" stroke-miterlimit="10" xmlns:xlink="http://www.w3.org/1999/xlink" xmlns="http://www.w3.org/2000/svg"><clipPath id="p.0"><path d="m0 0l960.0 0l0 720.0l-960.0 0l0 -720.0z" clip-rule="nonzero"/></clipPath><g clip-path="url(#p.0)"><path fill="#000000" fill-opacity="0.0" d="m0 0l960.0 0l0 720.0l-960.0 0z" fill-rule="evenodd"/><path fill="#ffff00" d="m358.98688 407.6614l0 0c0 -89.60928 72.64267 -162.25195 162.25195 -162.25195l0 0c43.03192 0 84.30133 17.09436 114.72949 47.52249c30.428162 30.428162 47.52246 71.69757 47.52246 114.72946l0 0c0 89.60928 -72.64264 162.25198 -162.25195 162.25198l0 0c-89.60928 0 -162.25195 -72.6427 -162.25195 -162.25198z" fill-rule="evenodd"/><path stroke="#000000" stroke-width="1.0" stroke-linejoin="round" stroke-linecap="butt" d="m358.98688 407.6614l0 0c0 -89.60928 72.64267 -162.25195 162.25195 -162.25195l0 0c43.03192 0 84.30133 17.09436 114.72949 47.52249c30.428162 30.428162 47.52246 71.69757 47.52246 114.72946l0 0c0 89.60928 -72.64264 162.25198 -162.25195 162.25198l0 0c-89.60928 0 -162.25195 -72.6427 -162.25195 -162.25198z" fill-rule="evenodd"/></g></svg>