<?xml version="1.0" encoding="UTF-8"?>
<svg viewBox="0 0 670.93 802.78" xmlns="http://www.w3.org/2000/svg">
 <g fill-rule="evenodd">
  <path d="m194.06 378.46c26.673 0.96786 53.346-10.064 80.019-9.0963 5.1293 48.395 23.181 122.85 40.621 142.21 30.776-17.422 35.398-20.978 55.398-30.978s17.502-11.089 28.081-16.45c10.579-5.3611 22.236-14.994 34.547-24.083 12.311-9.0889 37.275-47.633 36.468-78.817-0.80649-31.183 11.543-51.435 25.845 31.35 7.1506 41.392-15.932 60.766-53.956 90.689-38.024 29.922-78.99 56.393-83.606 83.978-11.285 64.849 7.0272 146.92 14.208 208.87-57.45-0.96802-68.228-1.0323-125.68-2 31.802-109.37 23.036-131.76 16.373-216.1-6.6635-84.336-53.958-126.34-68.32-179.57z" fill="#b85e00" stroke="#000" stroke-width="9.25"/>
  <g stroke-width="1.25">
   <path transform="rotate(183.03 469.38 277.28)" d="m624.5 277.28a155.13 119.86 0 1 1 -310.26 0 155.13 119.86 0 1 1 310.26 0z"/>
   <path transform="rotate(183.03 336.28 350.57)" d="m458.62 350.57a122.33 115.01 0 1 1 -244.66 0 122.33 115.01 0 1 1 244.66 0z"/>
   <path transform="rotate(183.03 182.55 280.61)" d="m314.41 280.61a131.86 121.07 0 1 1 -263.73 0 131.86 121.07 0 1 1 263.73 0z"/>
   <path transform="rotate(183.03 393.17 168.09)" d="m521.08 168.09a127.91 101.7 0 1 1 -255.82 0 127.91 101.7 0 1 1 255.82 0z"/>
   <path transform="rotate(183.03 248.64 154.38)" d="m371.28 154.38a122.63 105.33 0 1 1 -245.27 0 122.63 105.33 0 1 1 245.27 0z"/>
   <g fill="#007f00">
    <path transform="rotate(183.03 397.47 170.09)" d="m513.01 170.09a115.54 98.664 0 1 1 -231.08 0 115.54 98.664 0 1 1 231.08 0z"/>
    <path transform="rotate(183.03 251.34 158.41)" d="m369.7 158.41a118.36 102.61 0 1 1 -236.72 0 118.36 102.61 0 1 1 236.72 0z"/>
    <path transform="rotate(183.03 180.01 279.79)" d="m304.01 279.79a124 114.45 0 1 1 -247.99 0 124 114.45 0 1 1 247.99 0z"/>
    <path transform="rotate(183.03 337.36 346.07)" d="m452.9 346.07a115.54 109.19 0 1 1 -231.08 0 115.54 109.19 0 1 1 231.08 0z"/>
    <path transform="rotate(183.03 491.68 276.12)" d="m615.59 276.12a123.91 106.56 0 1 1 -247.82 0 123.91 106.56 0 1 1 247.82 0z"/>
    <path transform="rotate(183.03 484.14 283.74)" d="m608.05 283.74a123.91 106.56 0 1 1 -247.82 0 123.91 106.56 0 1 1 247.82 0z"/>
   </g>
  </g>
 </g>
</svg>
